<svg xmlns="http://www.w3.org/2000/svg" xmlns:xlink="http://www.w3.org/1999/xlink" version="1.1" width="496.63870666961895" height="105.37010620575175" viewBox="-3.319353334809472 0.7828466964710454 496.63870666961895 105.37010620575175">
  <!-- Exported by Scratch - http://scratch.mit.edu/ -->
  <path id="ID0.47681836085394025" fill="#000000" stroke="none" d="M 0 48.5 L 490 48.5 L 490 57 L 0 57 L 0 48.5 Z " stroke-width="1.0301588036951723"/>
  <path id="ID0.42059136228635907" fill="#FFFFFF" stroke="#000000" stroke-width="6.638706669618944" d="M 110.3068 4.1022 C 123.9648 4.1022 136.3415 9.6343 145.304 18.5703 C 154.2665 27.5073 159.8136 39.8482 159.8136 53.4679 C 159.8136 67.0876 154.2665 79.4285 145.304 88.3655 C 136.3415 97.3015 123.9648 102.8336 110.3068 102.8336 C 96.6487 102.8336 84.272 97.3015 75.3096 88.3655 C 66.3471 79.4285 60.8 67.0876 60.8 53.4679 C 60.8 39.8482 66.3471 27.5073 75.3096 18.5703 C 84.272 9.6343 96.6487 4.1022 110.3068 4.1022 Z "/>
</svg>